<svg fill="#1A1A1A" xmlns="http://www.w3.org/2000/svg" viewBox="0 0 21.387 27" width="32px" height="32px">
    <path d="M 2.643 0 C 1.184 0 0 1.182 0 2.641 C 0 4.1 1.183 5.309 2.641 5.309 C 4.099 5.309 5.283 4.1 5.283 2.641 C 5.283 1.183 4.102 0 2.643 0 Z M 15.535 7 C 13.316 7 12.047 8.16 11.438 9.314 L 11.373 9.314 L 11.373 7.311 L 7 7.311 L 7 22 L 11.557 22 L 11.557 14.729 C 11.557 12.813 11.701 10.961 14.072 10.961 C 16.409 10.961 16.443 13.146 16.443 14.85 L 16.443 22 L 20.994 22 L 21 22 L 21 13.932 C 21 9.984 20.151 7 15.535 7 Z M 0.363 7.311 L 0.363 22 L 4.924 22 L 4.924 7.311 L 0.363 7.311 Z"/>
</svg>